<svg id="Livello_1" data-name="Livello 1" xmlns="http://www.w3.org/2000/svg" viewBox="0 0 144 144"><defs><style>.cls-1{fill:none;}.cls-2{fill:#fff;}</style></defs><title>icon_close_w</title><rect class="cls-1" width="144" height="144"/><path class="cls-2" d="M72,24a48,48,0,1,0,48,48A48.05,48.05,0,0,0,72,24Zm0,90a42,42,0,1,1,42-42A42,42,0,0,1,72,114Z"/><path class="cls-2" d="M92.09,52a3,3,0,0,0-4.24.06l-15.65,16L56.12,52a3,3,0,0,0-4.24,4.24L68,72.36,52.3,88.46a3,3,0,0,0,2.15,5.09,3,3,0,0,0,2.14-.9L72.25,76.6,87.88,92.23a3,3,0,0,0,4.24,0,3,3,0,0,0,0-4.24L76.44,72.31l15.71-16.1A3,3,0,0,0,92.09,52Z"/></svg>