<svg id="Livello_1" data-name="Livello 1" xmlns="http://www.w3.org/2000/svg" viewBox="0 0 1538.57 491.66"><defs><style>.cls-1{fill:#fff;}</style></defs><title>CRT - Tavola disegno 2</title><path class="cls-1" d="M297.24,296.75H258.06V274.92h-.64c-8,12.84-26.65,27.62-56.83,27.62-45.28,0-90.87-37.25-90.87-94.73,0-60.05,48.17-95.38,90.87-95.38,26,0,41.42,8.68,53.95,21.85V59.13h42.7Zm-92.15-33.4c32.1,0,52.65-28.89,52.65-55.86,0-29.23-22.47-55.88-52.65-55.88-31.8,0-52.67,29.54-52.67,54.59,0,33.07,24.73,57.15,52.67,57.15"/><path class="cls-1" d="M499.55,296.75H460.37V274.59c-13.49,16.06-39.82,28-62.3,28-45.91,0-86.7-36.61-86.7-96,0-54.59,39.83-94.09,89.28-94.09,36.28,0,57.8,26,59.08,28.58h.64V118.54h39.18ZM407.07,151.61c-35,0-53,30.19-53,56.84,0,30.18,22.48,54.91,53,54.91,29.54,0,52-23.13,52-56.2,0-36.93-26.66-55.55-52-55.55"/><path class="cls-1" d="M1068.55,296.75h-39.17V274.59c-13.49,16.06-39.82,28-62.3,28-45.91,0-86.7-36.61-86.7-96,0-54.59,39.83-94.09,89.27-94.09,36.29,0,57.8,26,59.08,28.58h.65V118.54h39.17ZM976.08,151.61c-35,0-53,30.19-53,56.84,0,30.18,22.48,54.91,53,54.91,29.53,0,52-23.13,52-56.2,0-36.93-26.65-55.55-52-55.55"/><path class="cls-1" d="M693.33,35.06A166.81,166.81,0,0,0,526.51,201.94c0,92.17,166.87,254.66,166.87,254.66S860.24,294.07,860.22,201.9A166.85,166.85,0,0,0,693.33,35.06Zm1.24,282.86a121.38,121.38,0,1,1,121.36-121.4A121.36,121.36,0,0,1,694.57,317.92Z"/><path class="cls-1" d="M681,87h27.48L788.12,277.1H749.34L729,228H661L640.69,277.1H601.9Zm-8.22,107.89h43.67L694.88,136.6h-.51Z"/><path class="cls-1" d="M1262,35.06a166.82,166.82,0,0,0-166.82,166.88c0,92.17,166.88,254.66,166.88,254.66s166.85-162.53,166.83-254.7A166.85,166.85,0,0,0,1262,35.06Zm1.25,282.86a121.38,121.38,0,1,1,121.35-121.4A121.37,121.37,0,0,1,1263.21,317.92Z"/><path class="cls-1" d="M1207.26,101.3h37.5c21.07,0,42.13,0,58.57,14.64,9.51,8.48,16.18,22.34,16.18,35.45,0,23.89-15.41,32.88-21.32,36.22,12.59,4.61,32.63,15.15,32.63,47.25,0,22.86-12.08,37-23.64,45.21-14.38,10-36.73,11.31-49,11.31h-50.87Zm35.19,74H1254c8.22,0,30.31,0,30.31-20.55,0-11.31-7.19-20.55-27.23-20.55h-14.64Zm0,83.22h17.72c6.94,0,35.46,0,35.46-24.92,0-7.7-3.86-25.43-34.68-25.43h-18.5Z"/></svg>